<?xml version="1.0" encoding="UTF-8" standalone="no"?>
<!DOCTYPE svg PUBLIC "-//W3C//DTD SVG 1.1//EN"
 "http://www.w3.org/Graphics/SVG/1.1/DTD/svg11.dtd">
<!-- Generated by graphviz version 2.43.0 (0)
 -->
<!-- Title: %3 Pages: 1 -->
<svg width="2653pt" height="260pt"
 viewBox="0.00 0.00 2653.18 260.00" xmlns="http://www.w3.org/2000/svg" xmlns:xlink="http://www.w3.org/1999/xlink">
<g id="graph0" class="graph" transform="scale(1 1) rotate(0) translate(4 256)">
<title>%3</title>
<polygon fill="white" stroke="transparent" points="-4,4 -4,-256 2649.18,-256 2649.18,4 -4,4"/>
<!-- WINDOW -->
<g id="node1" class="node">
<title>WINDOW</title>
<ellipse fill="none" stroke="black" cx="2157.69" cy="-234" rx="55.49" ry="18"/>
<text text-anchor="middle" x="2157.69" y="-230.3" font-family="Times,serif" font-size="14.00">WINDOW</text>
</g>
<!-- DISPLAY -->
<g id="node2" class="node">
<title>DISPLAY</title>
<ellipse fill="none" stroke="black" cx="618.69" cy="-162" rx="51.99" ry="18"/>
<text text-anchor="middle" x="618.69" y="-158.3" font-family="Times,serif" font-size="14.00">DISPLAY</text>
</g>
<!-- WINDOW&#45;&#45;DISPLAY -->
<g id="edge1" class="edge">
<title>WINDOW&#45;&#45;DISPLAY</title>
<path fill="none" stroke="black" d="M2103.37,-230.53C1863.85,-219.64 903.68,-175.96 670.1,-165.34"/>
</g>
<!-- CURSOR -->
<g id="node3" class="node">
<title>CURSOR</title>
<ellipse fill="none" stroke="black" cx="1672.69" cy="-162" rx="52.79" ry="18"/>
<text text-anchor="middle" x="1672.69" y="-158.3" font-family="Times,serif" font-size="14.00">CURSOR</text>
</g>
<!-- WINDOW&#45;&#45;CURSOR -->
<g id="edge2" class="edge">
<title>WINDOW&#45;&#45;CURSOR</title>
<path fill="none" stroke="black" d="M2108.07,-225.84C2014.27,-212.3 1812.15,-183.13 1720.09,-169.84"/>
</g>
<!-- TABS -->
<g id="node4" class="node">
<title>TABS</title>
<ellipse fill="none" stroke="black" cx="2157.69" cy="-162" rx="36" ry="18"/>
<text text-anchor="middle" x="2157.69" y="-158.3" font-family="Times,serif" font-size="14.00">TABS</text>
</g>
<!-- WINDOW&#45;&#45;TABS -->
<g id="edge3" class="edge">
<title>WINDOW&#45;&#45;TABS</title>
<path fill="none" stroke="black" d="M2157.69,-215.7C2157.69,-204.85 2157.69,-190.92 2157.69,-180.1"/>
</g>
<!-- TEXT -->
<g id="node5" class="node">
<title>TEXT</title>
<ellipse fill="none" stroke="black" cx="2310.69" cy="-162" rx="36" ry="18"/>
<text text-anchor="middle" x="2310.69" y="-158.3" font-family="Times,serif" font-size="14.00">TEXT</text>
</g>
<!-- WINDOW&#45;&#45;TEXT -->
<g id="edge4" class="edge">
<title>WINDOW&#45;&#45;TEXT</title>
<path fill="none" stroke="black" d="M2188.28,-219C2216.71,-206 2258.57,-186.85 2285.22,-174.65"/>
</g>
<!-- GRAPHICS -->
<g id="node6" class="node">
<title>GRAPHICS</title>
<ellipse fill="none" stroke="black" cx="2425.69" cy="-162" rx="61.99" ry="18"/>
<text text-anchor="middle" x="2425.69" y="-158.3" font-family="Times,serif" font-size="14.00">GRAPHICS</text>
</g>
<!-- WINDOW&#45;&#45;GRAPHICS -->
<g id="edge5" class="edge">
<title>WINDOW&#45;&#45;GRAPHICS</title>
<path fill="none" stroke="black" d="M2199,-221.99C2206.54,-219.99 2214.35,-217.93 2221.69,-216 2276.55,-201.59 2339.76,-185.2 2381.1,-174.51"/>
</g>
<!-- ALLEGRO_DISPLAY -->
<g id="node7" class="node">
<title>ALLEGRO_DISPLAY</title>
<ellipse fill="none" stroke="black" cx="102.69" cy="-90" rx="102.88" ry="18"/>
<text text-anchor="middle" x="102.69" y="-86.3" font-family="Times,serif" font-size="14.00">ALLEGRO_DISPLAY</text>
</g>
<!-- DISPLAY&#45;&#45;ALLEGRO_DISPLAY -->
<g id="edge6" class="edge">
<title>DISPLAY&#45;&#45;ALLEGRO_DISPLAY</title>
<path fill="none" stroke="black" d="M570.64,-155.06C494.75,-145.59 342.52,-126.29 213.69,-108 201.72,-106.3 189.04,-104.43 176.69,-102.56"/>
</g>
<!-- ALLEGRO_COLOR -->
<g id="node9" class="node">
<title>ALLEGRO_COLOR</title>
<ellipse fill="none" stroke="black" cx="318.69" cy="-90" rx="95.58" ry="18"/>
<text text-anchor="middle" x="318.69" y="-86.3" font-family="Times,serif" font-size="14.00">ALLEGRO_COLOR</text>
</g>
<!-- DISPLAY&#45;&#45;ALLEGRO_COLOR -->
<g id="edge7" class="edge">
<title>DISPLAY&#45;&#45;ALLEGRO_COLOR</title>
<path fill="none" stroke="black" d="M575.38,-151.99C521.84,-140.07 430.92,-118.91 372.84,-104.92"/>
</g>
<!-- DISPLAY&#45;&#45;ALLEGRO_COLOR -->
<g id="edge8" class="edge">
<title>DISPLAY&#45;&#45;ALLEGRO_COLOR</title>
<path fill="none" stroke="black" d="M578.45,-150.44C527.29,-137.99 438.73,-117.3 379.37,-103.91"/>
</g>
<!-- width -->
<g id="node12" class="node">
<title>width</title>
<ellipse fill="none" stroke="black" cx="469.69" cy="-90" rx="37.09" ry="18"/>
<text text-anchor="middle" x="469.69" y="-86.3" font-family="Times,serif" font-size="14.00">width</text>
</g>
<!-- DISPLAY&#45;&#45;width -->
<g id="edge9" class="edge">
<title>DISPLAY&#45;&#45;width</title>
<path fill="none" stroke="black" d="M588.9,-147C561.55,-134.16 521.45,-115.32 495.46,-103.11"/>
</g>
<!-- height -->
<g id="node13" class="node">
<title>height</title>
<ellipse fill="none" stroke="black" cx="564.69" cy="-90" rx="40.09" ry="18"/>
<text text-anchor="middle" x="564.69" y="-86.3" font-family="Times,serif" font-size="14.00">height</text>
</g>
<!-- DISPLAY&#45;&#45;height -->
<g id="edge10" class="edge">
<title>DISPLAY&#45;&#45;height</title>
<path fill="none" stroke="black" d="M605.89,-144.41C597.29,-133.25 585.99,-118.6 577.4,-107.47"/>
</g>
<!-- winposx -->
<g id="node14" class="node">
<title>winposx</title>
<ellipse fill="none" stroke="black" cx="671.69" cy="-90" rx="48.99" ry="18"/>
<text text-anchor="middle" x="671.69" y="-86.3" font-family="Times,serif" font-size="14.00">winposx</text>
</g>
<!-- DISPLAY&#45;&#45;winposx -->
<g id="edge11" class="edge">
<title>DISPLAY&#45;&#45;winposx</title>
<path fill="none" stroke="black" d="M631.25,-144.41C639.7,-133.25 650.79,-118.6 659.22,-107.47"/>
</g>
<!-- winposy -->
<g id="node15" class="node">
<title>winposy</title>
<ellipse fill="none" stroke="black" cx="786.69" cy="-90" rx="48.99" ry="18"/>
<text text-anchor="middle" x="786.69" y="-86.3" font-family="Times,serif" font-size="14.00">winposy</text>
</g>
<!-- DISPLAY&#45;&#45;winposy -->
<g id="edge12" class="edge">
<title>DISPLAY&#45;&#45;winposy</title>
<path fill="none" stroke="black" d="M650.69,-147.67C680.87,-135.09 725.81,-116.37 755.67,-103.93"/>
</g>
<!-- blinkcounter -->
<g id="node16" class="node">
<title>blinkcounter</title>
<ellipse fill="none" stroke="black" cx="922.69" cy="-90" rx="69.59" ry="18"/>
<text text-anchor="middle" x="922.69" y="-86.3" font-family="Times,serif" font-size="14.00">blinkcounter</text>
</g>
<!-- DISPLAY&#45;&#45;blinkcounter -->
<g id="edge13" class="edge">
<title>DISPLAY&#45;&#45;blinkcounter</title>
<path fill="none" stroke="black" d="M660.64,-151.34C716.02,-138.59 813.41,-116.16 872.59,-102.54"/>
</g>
<!-- blinkdivisor -->
<g id="node17" class="node">
<title>blinkdivisor</title>
<ellipse fill="none" stroke="black" cx="1075.69" cy="-90" rx="65.79" ry="18"/>
<text text-anchor="middle" x="1075.69" y="-86.3" font-family="Times,serif" font-size="14.00">blinkdivisor</text>
</g>
<!-- DISPLAY&#45;&#45;blinkdivisor -->
<g id="edge14" class="edge">
<title>DISPLAY&#45;&#45;blinkdivisor</title>
<path fill="none" stroke="black" d="M667.58,-155.64C740.6,-147.31 882.36,-129.92 1001.69,-108 1010.38,-106.4 1019.59,-104.48 1028.45,-102.51"/>
</g>
<!-- xcursor -->
<g id="node18" class="node">
<title>xcursor</title>
<ellipse fill="none" stroke="black" cx="1205.69" cy="-90" rx="46.29" ry="18"/>
<text text-anchor="middle" x="1205.69" y="-86.3" font-family="Times,serif" font-size="14.00">xcursor</text>
</g>
<!-- CURSOR&#45;&#45;xcursor -->
<g id="edge15" class="edge">
<title>CURSOR&#45;&#45;xcursor</title>
<path fill="none" stroke="black" d="M1621.79,-157.28C1543.5,-150.93 1389.13,-135.89 1260.69,-108 1253.76,-106.49 1246.44,-104.52 1239.48,-102.44"/>
</g>
<!-- ycursor -->
<g id="node19" class="node">
<title>ycursor</title>
<ellipse fill="none" stroke="black" cx="1315.69" cy="-90" rx="46.29" ry="18"/>
<text text-anchor="middle" x="1315.69" y="-86.3" font-family="Times,serif" font-size="14.00">ycursor</text>
</g>
<!-- CURSOR&#45;&#45;ycursor -->
<g id="edge16" class="edge">
<title>CURSOR&#45;&#45;ycursor</title>
<path fill="none" stroke="black" d="M1624.71,-154.49C1564.81,-145.92 1459.44,-129.41 1370.69,-108 1363.89,-106.36 1356.7,-104.34 1349.83,-102.28"/>
</g>
<!-- scrolloffsetx -->
<g id="node20" class="node">
<title>scrolloffsetx</title>
<ellipse fill="none" stroke="black" cx="1447.69" cy="-90" rx="67.69" ry="18"/>
<text text-anchor="middle" x="1447.69" y="-86.3" font-family="Times,serif" font-size="14.00">scrolloffsetx</text>
</g>
<!-- CURSOR&#45;&#45;scrolloffsetx -->
<g id="edge17" class="edge">
<title>CURSOR&#45;&#45;scrolloffsetx</title>
<path fill="none" stroke="black" d="M1635.03,-149.28C1595,-136.83 1531.83,-117.18 1490.08,-104.19"/>
</g>
<!-- scrolloffsety -->
<g id="node21" class="node">
<title>scrolloffsety</title>
<ellipse fill="none" stroke="black" cx="1600.69" cy="-90" rx="67.69" ry="18"/>
<text text-anchor="middle" x="1600.69" y="-86.3" font-family="Times,serif" font-size="14.00">scrolloffsety</text>
</g>
<!-- CURSOR&#45;&#45;scrolloffsety -->
<g id="edge18" class="edge">
<title>CURSOR&#45;&#45;scrolloffsety</title>
<path fill="none" stroke="black" d="M1655.99,-144.76C1644.53,-133.62 1629.35,-118.87 1617.8,-107.63"/>
</g>
<!-- pixperline -->
<g id="node22" class="node">
<title>pixperline</title>
<ellipse fill="none" stroke="black" cx="1743.69" cy="-90" rx="57.69" ry="18"/>
<text text-anchor="middle" x="1743.69" y="-86.3" font-family="Times,serif" font-size="14.00">pixperline</text>
</g>
<!-- CURSOR&#45;&#45;pixperline -->
<g id="edge19" class="edge">
<title>CURSOR&#45;&#45;pixperline</title>
<path fill="none" stroke="black" d="M1689.16,-144.76C1700.46,-133.62 1715.43,-118.87 1726.82,-107.63"/>
</g>
<!-- cursorstyle -->
<g id="node23" class="node">
<title>cursorstyle</title>
<ellipse fill="none" stroke="black" cx="1882.69" cy="-90" rx="63.09" ry="18"/>
<text text-anchor="middle" x="1882.69" y="-86.3" font-family="Times,serif" font-size="14.00">cursorstyle</text>
</g>
<!-- CURSOR&#45;&#45;cursorstyle -->
<g id="edge20" class="edge">
<title>CURSOR&#45;&#45;cursorstyle</title>
<path fill="none" stroke="black" d="M1709.27,-148.81C1746.76,-136.31 1804.85,-116.95 1843.32,-104.12"/>
</g>
<!-- cursorchar -->
<g id="node24" class="node">
<title>cursorchar</title>
<ellipse fill="none" stroke="black" cx="2024.69" cy="-90" rx="61.19" ry="18"/>
<text text-anchor="middle" x="2024.69" y="-86.3" font-family="Times,serif" font-size="14.00">cursorchar</text>
</g>
<!-- CURSOR&#45;&#45;cursorchar -->
<g id="edge21" class="edge">
<title>CURSOR&#45;&#45;cursorchar</title>
<path fill="none" stroke="black" d="M1718.75,-153.11C1774.71,-143.34 1871.9,-125.82 1954.69,-108 1962.76,-106.26 1971.32,-104.29 1979.58,-102.32"/>
</g>
<!-- hts -->
<g id="node25" class="node">
<title>hts</title>
<ellipse fill="none" stroke="black" cx="2130.69" cy="-90" rx="27" ry="18"/>
<text text-anchor="middle" x="2130.69" y="-86.3" font-family="Times,serif" font-size="14.00">hts</text>
</g>
<!-- TABS&#45;&#45;hts -->
<g id="edge22" class="edge">
<title>TABS&#45;&#45;hts</title>
<path fill="none" stroke="black" d="M2151.15,-144.05C2146.91,-133.05 2141.4,-118.76 2137.17,-107.79"/>
</g>
<!-- vts -->
<g id="node26" class="node">
<title>vts</title>
<ellipse fill="none" stroke="black" cx="2202.69" cy="-90" rx="27" ry="18"/>
<text text-anchor="middle" x="2202.69" y="-86.3" font-family="Times,serif" font-size="14.00">vts</text>
</g>
<!-- TABS&#45;&#45;vts -->
<g id="edge23" class="edge">
<title>TABS&#45;&#45;vts</title>
<path fill="none" stroke="black" d="M2168.13,-144.76C2175.4,-133.46 2185.05,-118.44 2192.31,-107.15"/>
</g>
<!-- flut -->
<g id="node27" class="node">
<title>flut</title>
<ellipse fill="none" stroke="black" cx="2274.69" cy="-90" rx="27" ry="18"/>
<text text-anchor="middle" x="2274.69" y="-86.3" font-family="Times,serif" font-size="14.00">flut</text>
</g>
<!-- TEXT&#45;&#45;flut -->
<g id="edge24" class="edge">
<title>TEXT&#45;&#45;flut</title>
<path fill="none" stroke="black" d="M2302.16,-144.41C2296.42,-133.25 2288.89,-118.6 2283.16,-107.47"/>
</g>
<!-- fcp -->
<g id="node28" class="node">
<title>fcp</title>
<ellipse fill="none" stroke="black" cx="2346.69" cy="-90" rx="27" ry="18"/>
<text text-anchor="middle" x="2346.69" y="-86.3" font-family="Times,serif" font-size="14.00">fcp</text>
</g>
<!-- TEXT&#45;&#45;fcp -->
<g id="edge25" class="edge">
<title>TEXT&#45;&#45;fcp</title>
<path fill="none" stroke="black" d="M2319.22,-144.41C2324.96,-133.25 2332.49,-118.6 2338.22,-107.47"/>
</g>
<!-- charcnt -->
<g id="node29" class="node">
<title>charcnt</title>
<ellipse fill="none" stroke="black" cx="2437.69" cy="-90" rx="46.29" ry="18"/>
<text text-anchor="middle" x="2437.69" y="-86.3" font-family="Times,serif" font-size="14.00">charcnt</text>
</g>
<!-- TEXT&#45;&#45;charcnt -->
<g id="edge26" class="edge">
<title>TEXT&#45;&#45;charcnt</title>
<path fill="none" stroke="black" d="M2333.98,-148.16C2356.04,-136 2389.09,-117.79 2411.92,-105.2"/>
</g>
<!-- CHARACTER -->
<g id="node30" class="node">
<title>CHARACTER</title>
<ellipse fill="none" stroke="black" cx="2573.69" cy="-90" rx="71.49" ry="18"/>
<text text-anchor="middle" x="2573.69" y="-86.3" font-family="Times,serif" font-size="14.00">CHARACTER</text>
</g>
<!-- TEXT&#45;&#45;CHARACTER -->
<g id="edge27" class="edge">
<title>TEXT&#45;&#45;CHARACTER</title>
<path fill="none" stroke="black" d="M2337.49,-150.01C2343.12,-147.87 2349.06,-145.76 2354.69,-144 2385.49,-134.37 2467.57,-115.14 2522.02,-102.68"/>
</g>
<!-- display -->
<g id="node8" class="node">
<title>display</title>
<ellipse fill="none" stroke="black" cx="2274.69" cy="-234" rx="44.39" ry="18"/>
<text text-anchor="middle" x="2274.69" y="-230.3" font-family="Times,serif" font-size="14.00">display</text>
</g>
<!-- winbgcolor -->
<g id="node10" class="node">
<title>winbgcolor</title>
<ellipse fill="none" stroke="black" cx="2398.69" cy="-234" rx="61.99" ry="18"/>
<text text-anchor="middle" x="2398.69" y="-230.3" font-family="Times,serif" font-size="14.00">winbgcolor</text>
</g>
<!-- winfgcolor -->
<g id="node11" class="node">
<title>winfgcolor</title>
<ellipse fill="none" stroke="black" cx="2538.69" cy="-234" rx="59.59" ry="18"/>
<text text-anchor="middle" x="2538.69" y="-230.3" font-family="Times,serif" font-size="14.00">winfgcolor</text>
</g>
<!-- c -->
<g id="node31" class="node">
<title>c</title>
<ellipse fill="none" stroke="black" cx="2573.69" cy="-18" rx="27" ry="18"/>
<text text-anchor="middle" x="2573.69" y="-14.3" font-family="Times,serif" font-size="14.00">c</text>
</g>
<!-- CHARACTER&#45;&#45;c -->
<g id="edge28" class="edge">
<title>CHARACTER&#45;&#45;c</title>
<path fill="none" stroke="black" d="M2573.69,-71.7C2573.69,-60.85 2573.69,-46.92 2573.69,-36.1"/>
</g>
</g>
</svg>
